<?xml version="1.0" encoding="UTF-8"?>
<svg width="56px" height="56px" viewBox="0 0 56 56" version="1.1" xmlns="http://www.w3.org/2000/svg" xmlns:xlink="http://www.w3.org/1999/xlink">
    <!-- Generator: Sketch 40.3 (33839) - http://www.bohemiancoding.com/sketch -->
    <title>icon-instagram</title>
    <desc>Created with Sketch.</desc>
    <defs></defs>
    <g id="Symbols" stroke="none" stroke-width="1" fill="none" fill-rule="evenodd">
        <g id="icon/instagram">
            <g id="instagram---FontAwesome---group">
                <path d="M35.999349,28 C35.999349,32.4058914 32.4058914,35.999349 28,35.999349 C23.5941086,35.999349 20.000651,32.4058914 20.000651,28 C20.000651,23.5941086 23.5941086,20.000651 28,20.000651 C32.4058914,20.000651 35.999349,23.5941086 35.999349,28 L35.999349,28 Z M40.3114981,28 C40.3114981,21.1880544 34.8119456,15.6885019 28,15.6885019 C21.1880544,15.6885019 15.6885019,21.1880544 15.6885019,28 C15.6885019,34.8119456 21.1880544,40.3114981 28,40.3114981 C34.8119456,40.3114981 40.3114981,34.8119456 40.3114981,28 L40.3114981,28 Z M43.6862235,15.1885426 C43.6862235,13.5949223 42.4050777,12.3137765 40.8114574,12.3137765 C39.2178371,12.3137765 37.9366913,13.5949223 37.9366913,15.1885426 C37.9366913,16.7821629 39.2178371,18.0633087 40.8114574,18.0633087 C42.4050777,18.0633087 43.6862235,16.7821629 43.6862235,15.1885426 L43.6862235,15.1885426 Z M28,8.31410204 C31.4997152,8.31410204 38.9991049,8.03287493 42.1550981,9.28277321 C43.2487591,9.72023761 44.0611929,10.2514444 44.9048743,11.0951257 C45.7485556,11.9388071 46.2797624,12.7512409 46.7172268,13.8449019 C47.9671251,17.0008951 47.685898,24.5002848 47.685898,28 C47.685898,31.4997152 47.9671251,38.9991049 46.7172268,42.1550981 C46.2797624,43.2487591 45.7485556,44.0611929 44.9048743,44.9048743 C44.0611929,45.7485556 43.2487591,46.2797624 42.1550981,46.7172268 C38.9991049,47.9671251 31.4997152,47.685898 28,47.685898 C24.5002848,47.685898 17.0008951,47.9671251 13.8449019,46.7172268 C12.7512409,46.2797624 11.9388071,45.7485556 11.0951257,44.9048743 C10.2514444,44.0611929 9.72023761,43.2487591 9.28277321,42.1550981 C8.03287493,38.9991049 8.31410204,31.4997152 8.31410204,28 C8.31410204,24.5002848 8.03287493,17.0008951 9.28277321,13.8449019 C9.72023761,12.7512409 10.2514444,11.9388071 11.0951257,11.0951257 C11.9388071,10.2514444 12.7512409,9.72023761 13.8449019,9.28277321 C17.0008951,8.03287493 24.5002848,8.31410204 28,8.31410204 L28,8.31410204 Z M51.998047,28 C51.998047,24.6877696 52.0292945,21.4067866 51.8418097,18.0945561 C51.654325,14.2511189 50.7793962,10.8451461 47.9671251,8.03287493 C45.1548539,5.22060379 41.7488811,4.34567499 37.9054439,4.15819025 C34.5932134,3.97070551 31.3122304,4.00195297 28,4.00195297 C24.6877696,4.00195297 21.4067866,3.97070551 18.0945561,4.15819025 C14.2511189,4.34567499 10.8451461,5.22060379 8.03287493,8.03287493 C5.22060379,10.8451461 4.34567499,14.2511189 4.15819025,18.0945561 C3.97070551,21.4067866 4.00195297,24.6877696 4.00195297,28 C4.00195297,31.3122304 3.97070551,34.5932134 4.15819025,37.9054439 C4.34567499,41.7488811 5.22060379,45.1548539 8.03287493,47.9671251 C10.8451461,50.7793962 14.2511189,51.654325 18.0945561,51.8418097 C21.4067866,52.0292945 24.6877696,51.998047 28,51.998047 C31.3122304,51.998047 34.5932134,52.0292945 37.9054439,51.8418097 C41.7488811,51.654325 45.1548539,50.7793962 47.9671251,47.9671251 C50.7793962,45.1548539 51.654325,41.7488811 51.8418097,37.9054439 C52.0292945,34.5932134 51.998047,31.3122304 51.998047,28 L51.998047,28 Z" id="instagram---FontAwesome" fill="#FFFFFF"></path>
                <rect id="base" x="0" y="0" width="56" height="56"></rect>
            </g>
        </g>
    </g>
</svg>