<?xml version="1.0" encoding="UTF-8"?>
<svg width="56px" height="56px" viewBox="0 0 56 56" version="1.1" xmlns="http://www.w3.org/2000/svg" xmlns:xlink="http://www.w3.org/1999/xlink">
    <!-- Generator: Sketch 40.3 (33839) - http://www.bohemiancoding.com/sketch -->
    <title>icon-youtube</title>
    <desc>Created with Sketch.</desc>
    <defs></defs>
    <g id="Symbols" stroke="none" stroke-width="1" fill="none" fill-rule="evenodd">
        <g id="icon/youtube">
            <g id="youtube---FontAwesome---group">
                <path d="M33.2857444,37.3214683 C33.2857444,36.1428955 32.9375297,35.5268233 32.2411003,35.5268233 C31.8393141,35.5268233 31.4375279,35.7143235 31.0357417,36.1161097 L31.0357417,44.1786193 C31.4375279,44.5804055 31.8393141,44.7679057 32.2411003,44.7679057 C32.9375297,44.7679057 33.2857444,44.1786193 33.2857444,42.9732607 L33.2857444,37.3214683 Z M42.3393266,37.348254 C42.3393266,36.1428955 41.9375405,35.5268233 41.1339681,35.5268233 C40.3303957,35.5268233 39.9286095,36.1428955 39.9286095,37.348254 L39.9286095,38.5803984 L42.3393266,38.5803984 L42.3393266,37.348254 Z M16.4642958,31.5089614 L16.4642958,46.750051 L13.7857212,46.750051 L13.7857212,31.5089614 L10.9732178,31.5089614 L10.9732178,28.9911012 L19.3303706,28.9911012 L19.3303706,31.5089614 L16.4642958,31.5089614 Z M24.1785907,46.750051 L24.1785907,45.3036207 C23.2143039,46.4018363 22.3035885,46.9375512 21.4464446,46.9375512 C20.669658,46.9375512 20.1071573,46.6161222 19.8928713,45.9464786 C19.7589426,45.5446924 19.6785854,44.9286202 19.6785854,43.9911191 L19.6785854,33.5178923 L22.0625168,33.5178923 L22.0625168,43.267904 C22.0625168,43.8304046 22.0625168,44.1250478 22.0893025,44.2054051 C22.142874,44.5804055 22.3303742,44.7679057 22.6518032,44.7679057 C23.1339466,44.7679057 23.6428758,44.3929053 24.1785907,43.6429044 L24.1785907,33.5178923 L26.5625221,33.5178923 L26.5625221,46.750051 L24.1785907,46.750051 Z M35.6696758,42.7857605 C35.6696758,44.0179048 35.6161043,44.9018345 35.4286041,45.4643351 C35.1339609,46.428622 34.4643173,46.9375512 33.5268161,46.9375512 C32.6696723,46.9375512 31.8393141,46.4554078 31.0357417,45.4643351 L31.0357417,46.750051 L28.6518103,46.750051 L28.6518103,28.9911012 L31.0357417,28.9911012 L31.0357417,34.8036081 C31.8125284,33.8393213 32.6428865,33.3571779 33.5268161,33.3571779 C34.4643173,33.3571779 35.1339609,33.866107 35.4286041,34.8571796 C35.6161043,35.3928946 35.6696758,36.2768242 35.6696758,37.5089685 L35.6696758,42.7857605 Z M44.7232581,42.5179031 C44.7232581,43.2946897 44.7232581,43.8304046 44.6696866,44.0714763 C44.6161151,44.6071913 44.4018291,45.0893347 44.1071859,45.5179066 C43.464328,46.4554078 42.4732554,46.9375512 41.2143253,46.9375512 C39.9553952,46.9375512 39.0178941,46.4821935 38.3214647,45.5714781 C37.8125355,44.9286202 37.5446781,43.8839761 37.5446781,42.4643316 L37.5446781,37.8303975 C37.5446781,36.4107529 37.7857498,35.3928946 38.294679,34.7232509 C38.9911084,33.8125355 39.9286095,33.3571779 41.1607538,33.3571779 C42.3661124,33.3571779 43.3036135,33.8125355 44.0000429,34.7232509 C44.4821863,35.3928946 44.7232581,36.4107529 44.7232581,37.8303975 L44.7232581,40.5893293 L39.9286095,40.5893293 L39.9286095,42.9196893 C39.9286095,44.1518336 40.3303957,44.7679057 41.1607538,44.7679057 C41.7500402,44.7679057 42.0982549,44.4464768 42.2321837,43.8036189 C42.2589694,43.6696901 42.2857552,43.1339752 42.2857552,42.1696884 L44.7232581,42.1696884 L44.7232581,42.5179031 Z M28.4375244,18.0625168 C28.4375244,19.2946611 28.0893097,19.937519 27.2857373,19.937519 C26.5089506,19.937519 26.1339502,19.2946611 26.1339502,18.0625168 L26.1339502,12.4375101 C26.1339502,11.2053657 26.5089506,10.5892936 27.2857373,10.5892936 C28.0893097,10.5892936 28.4375244,11.2053657 28.4375244,12.4375101 L28.4375244,18.0625168 Z M47.6964759,38.1786122 C47.6964759,35.0714656 47.6964759,31.8036046 47.0000465,28.803601 C46.5179031,26.687527 44.7768296,25.1339538 42.7143271,24.892882 C37.7857498,24.3571671 32.803601,24.3571671 27.8482379,24.3571671 C22.8928749,24.3571671 17.9107261,24.3571671 13.0089345,24.892882 C10.9196463,25.1339538 9.20535858,26.687527 8.6964294,28.803601 C8.02678575,31.8036046 8,35.0714656 8,38.1786122 C8,41.258973 8,44.5536198 8.6964294,47.5536233 C9.17857283,49.6696973 10.9196463,51.2232706 12.9821488,51.4375565 C17.9107261,52.0000572 22.8928749,52.0000572 27.8482379,52.0000572 C32.803601,52.0000572 37.7857498,52.0000572 42.7143271,51.4375565 C44.7768296,51.2232706 46.4911173,49.6696973 47.0000465,47.5536233 C47.6696901,44.5536198 47.6964759,41.258973 47.6964759,38.1786122 L47.6964759,38.1786122 Z M20.9643012,4 L19.1428704,11.0446513 L17.2410824,4 L14.4017933,4 C14.964294,5.66071627 15.5535804,7.34821828 16.1428668,9.00893454 C17.0000107,11.5000089 17.5357257,13.3750112 17.7767974,14.6875127 L17.7767974,21.94645 L20.455372,21.94645 L20.455372,14.6875127 L23.6964473,4 L20.9643012,4 Z M30.8750273,12.9196535 C30.8750273,11.5000089 30.6339556,10.4553648 30.1250264,9.78572118 C29.4553827,8.87500581 28.5178816,8.41964813 27.2857373,8.41964813 C26.0803787,8.41964813 25.1428776,8.87500581 24.4732339,9.78572118 C23.9643047,10.4553648 23.723233,11.5000089 23.723233,12.9196535 L23.723233,17.6071591 C23.723233,19.0268036 23.9643047,20.0714477 24.4732339,20.7678771 C25.1428776,21.6785925 26.0803787,22.1339502 27.2857373,22.1339502 C28.5178816,22.1339502 29.4553827,21.6785925 30.1250264,20.7678771 C30.6339556,20.0982335 30.8750273,19.0268036 30.8750273,17.6071591 L30.8750273,12.9196535 Z M39.8482523,8.5803626 L37.4107493,8.5803626 L37.4107493,18.7857319 C36.8750344,19.5625186 36.3661052,19.937519 35.8839618,19.937519 C35.5625329,19.937519 35.3750326,19.723233 35.3214611,19.3482326 C35.2946754,19.2946611 35.2946754,18.9732321 35.2946754,18.4107315 L35.2946754,8.5803626 L32.8571725,8.5803626 L32.8571725,19.1339466 C32.8571725,20.0982335 32.9375297,20.7410914 33.0714585,21.1428776 C33.3125302,21.8125212 33.8750308,22.1339502 34.6518175,22.1339502 C35.5357471,22.1339502 36.4464625,21.5982353 37.4107493,20.4732339 L37.4107493,21.94645 L39.8482523,21.94645 L39.8482523,8.5803626 Z" id="youtube---FontAwesome" fill="#FFFFFF"></path>
                <rect id="base" x="0" y="0" width="56" height="56"></rect>
            </g>
        </g>
    </g>
</svg>